<?xml version="1.0" encoding="utf-8"?>

<!DOCTYPE svg PUBLIC "-//W3C//DTD SVG 1.0//EN" "http://www.w3.org/TR/2001/REC-SVG-20010904/DTD/svg10.dtd">
<!-- Uploaded to: SVG Repo, www.svgrepo.com, Generator: SVG Repo Mixer Tools -->
<svg version="1.0" id="Layer_1" xmlns="http://www.w3.org/2000/svg" xmlns:xlink="http://www.w3.org/1999/xlink" 
	 width="800px" height="800px" viewBox="0 0 64 64" enable-background="new 0 0 64 64" xml:space="preserve">
<g>
	<path fill="#506C7F" d="M32,1.999c-16.568,0-30,13.432-30,30s13.432,30,30,30s30-13.432,30-30S48.568,1.999,32,1.999z M32,59.999
		c-15.464,0-28-12.536-28-28s12.536-28,28-28s28,12.536,28,28S47.464,59.999,32,59.999z"/>
	<circle fill="#45AAB8" cx="32" cy="31.999" r="26"/>
	<polygon fill="#F9EBB2" points="36.234,36.233 21.839,42.16 27.766,27.765 42.161,21.838 	"/>
	<g>
		<path fill="#394240" d="M32,0C14.327,0,0,14.327,0,32s14.327,32,32,32s32-14.327,32-32S49.673,0,32,0z M32,61.999
			c-16.568,0-30-13.432-30-30s13.432-30,30-30s30,13.432,30,30S48.568,61.999,32,61.999z"/>
		<path fill="#394240" d="M32,3.999c-15.464,0-28,12.536-28,28s12.536,28,28,28s28-12.536,28-28S47.464,3.999,32,3.999z
			 M51.075,49.66l-1.397-1.397c-0.391-0.391-1.023-0.391-1.414,0s-0.392,1.023,0,1.414l1.397,1.397
			C45.252,55.158,39.425,57.73,33,57.974v-4.975c0-0.553-0.447-1-1-1s-1,0.447-1,1v4.975c-6.425-0.243-12.252-2.815-16.661-6.899
			l1.397-1.397c0.391-0.391,0.391-1.023,0-1.414s-1.023-0.392-1.414,0l-1.397,1.397c-4.084-4.409-6.656-10.236-6.899-16.661H11
			c0.553,0,1-0.447,1-1s-0.447-1-1-1H6.025c0.243-6.425,2.815-12.252,6.899-16.661l1.397,1.397c0.391,0.391,1.023,0.391,1.414,0
			s0.392-1.023,0-1.414l-1.397-1.397C18.748,8.84,24.575,6.268,31,6.024v4.975c0,0.553,0.447,1,1,1s1-0.447,1-1V6.024
			c6.425,0.243,12.252,2.815,16.661,6.899l-1.397,1.397c-0.391,0.391-0.391,1.023,0,1.414s1.023,0.392,1.414,0l1.397-1.397
			c4.084,4.409,6.656,10.236,6.899,16.661H53c-0.553,0-1,0.447-1,1s0.447,1,1,1h4.975C57.731,39.424,55.159,45.251,51.075,49.66z"/>
		<path fill="#394240" d="M43.619,19.074l-17,7c-0.246,0.102-0.442,0.298-0.544,0.544l-7,17c-0.153,0.373-0.067,0.803,0.218,1.088
			c0.191,0.191,0.447,0.293,0.707,0.293c0.128,0,0.258-0.024,0.381-0.075l17-7c0.246-0.102,0.442-0.298,0.544-0.544l7-17
			c0.153-0.373,0.067-0.803-0.218-1.088S43.992,18.922,43.619,19.074z M36.234,36.233L21.839,42.16l5.927-14.396l14.396-5.927
			L36.234,36.233z"/>
		<path fill="#394240" d="M32,34.999c1.656,0,3-1.344,3-3s-1.344-3-3-3s-3,1.344-3,3S30.344,34.999,32,34.999z M32,30.999
			c0.553,0,1,0.447,1,1s-0.447,1-1,1s-1-0.447-1-1S31.447,30.999,32,30.999z"/>
	</g>
	<circle fill="#F76D57" cx="32" cy="31.999" r="1"/>
</g>
</svg>