<?xml version="1.0" encoding="utf-8"?>
<!-- Uploaded to: SVG Repo, www.svgrepo.com, Generator: SVG Repo Mixer Tools -->
<svg width="800px" height="800px" viewBox="0 0 1024 1024" class="icon"  version="1.1" xmlns="http://www.w3.org/2000/svg"><path d="M275.5 322.8h326.7v131.6H275.5l-109.3-65.8z" fill="#985C15" /><path d="M409.5 323.6h192.7v41.1H409.5zM339.5 413.3h262.7v41.1H339.5z" fill="#753F05" /><path d="M504.1 957.4c-15.5 0-28.2-12.7-28.2-28.2V94.8c0-15.5 12.7-28.2 28.2-28.2s28.2 12.7 28.2 28.2v834.4c0 15.5-12.7 28.2-28.2 28.2z" fill="#B76C1A" /><path d="M475.9 206h56.4v162.2h-56.4zM475.9 409.8h56.4V572h-56.4z" fill="#753F05" /><path d="M748.5 224.1H421.8v131.6h326.7l109.3-65.8z" fill="#F35426" /><path d="M678 425H351.3v131.7H678l109.3-65.9z" fill="#EAAF43" /><path d="M464.7 297.2c6.7-10.8 18.2-16.5 29.9-20.3 10-3.2 27.7-9.3 35.5 0.8 3.5 4.5 5.1 10.3 8.4 15 3.4 4.8 8.4 7.7 14.1 8.9 12.4 2.6 23.8-4 33-11.6 11.3-9.3 20.8-19.4 35.8-22.5 13.4-2.8 25.9 3.6 31.7 15.7 2.7 5.7 5.8 10.2 11.6 13 5.6 2.7 12.2 3.5 18.4 3.3 12-0.3 23.6-5.6 32.2-13.9 1.1-1 2-2.2 2.9-3.3 3.7-4.4-2.7-10.9-6.4-6.4-8.2 10-20.3 15.2-33.2 14.5-6.9-0.3-13-2.7-16.4-8.9-3.2-5.8-5.5-11.1-10.8-15.4-9.5-7.9-22.3-9.5-34-7-13.6 2.9-24.3 12.1-34.3 21.1-8.9 8-22.3 17.8-34.4 10.1-4.7-3-6.7-10.2-9.3-14.9-3-5.3-7.5-8.9-13.2-11-10.9-3.9-24.9 0.7-35.4 4.1-11.2 3.6-22.2 9.2-29.9 18.3-1.5 1.8-2.8 3.7-4 5.6-3.1 5.2 4.7 9.8 7.8 4.8zM395.9 478.6c72.3-0.1 144.6-0.1 216.8-0.2 5.8 0 5.8-9 0-9-72.3 0.1-144.6 0.1-216.8 0.2-5.8 0-5.8 9 0 9zM401.4 509.8h231.9c5.8 0 5.8-9 0-9H401.4c-5.8 0-5.8 9 0 9z" fill="#FFFFFF" /><path d="M595.7 466.3c17.7 11.2 35.3 22.4 53 33.6v-7.8c-14.4 10.7-29.1 20.9-44 30.8-4.8 3.2-0.3 11 4.5 7.8 15-9.8 29.7-20.1 44-30.8 2.7-2 3.1-5.8 0-7.8-17.7-11.2-35.3-22.4-53-33.6-4.9-3-9.4 4.8-4.5 7.8z" fill="#FFFFFF" /><path d="M475.9 892h56.4v46.2h-56.4z" fill="#753F05" /><path d="M592.2 957.4H413.6c-13.6 0-24.7-11.1-24.7-24.7S400 908 413.6 908h178.6c13.6 0 24.7 11.1 24.7 24.7s-11.1 24.7-24.7 24.7z" fill="#89490C" /></svg>