<?xml version="1.0" encoding="utf-8"?>
<!-- Uploaded to: SVG Repo, www.svgrepo.com, Generator: SVG Repo Mixer Tools -->
<svg width="800px" height="800px" viewBox="0 0 1024 1024" class="icon"  version="1.1" xmlns="http://www.w3.org/2000/svg"><path d="M385.3 453l-23.6-58.7c-3.8-9.5-1.1-20.3 6.7-26.8l48.5-40.6c7.8-6.5 19-7.3 27.6-1.9l53.6 33.6c8.6 5.4 12.8 15.8 10.3 25.7L493 445.7c-2.5 9.9-11.1 17.1-21.2 17.8l-63.1 4.3c-10.1 0.6-19.6-5.3-23.4-14.8z" fill="#888986" /><path d="M631.9 454.7l25.5-63.4c3.2-8.1 0.9-17.3-5.7-22.9l-52.4-43.8c-6.7-5.6-16.2-6.2-23.5-1.6l-57.9 36.3c-7.4 4.6-10.9 13.5-8.8 21.9l16.6 66.3c2.1 8.4 9.4 14.6 18.1 15.1l68.1 4.7c8.7 0.5 16.8-4.5 20-12.6z" fill="#888986" /><path d="M512.7 357.1m-41.2 0a41.2 41.2 0 1 0 82.4 0 41.2 41.2 0 1 0-82.4 0Z" fill="#EDB137" /><path d="M529 343.8m-11.2 0a11.2 11.2 0 1 0 22.4 0 11.2 11.2 0 1 0-22.4 0Z" fill="#F9F1D9" /><path d="M498.3 426l-9.2 37.1-110.6-106 28.6-22zM613.3 336.4l52.5 44.5-135.5 83.8-9.8-38z" fill="#333333" /><path d="M341.1 597.4L191.6 441c-11-11.5-10.6-29.7 0.9-40.6l114.9-109.8c11.5-11 29.7-10.6 40.6 0.9l149.5 156.4c11 11.5 10.6 29.7-0.9 40.6L381.7 598.3c-11.5 11-29.7 10.5-40.6-0.9z" fill="#F6B13A" /><path d="M273.9 547.4m-194 0a194 194 0 1 0 388 0 194 194 0 1 0-388 0Z" fill="#DE592B" /><path d="M273.9 547.4m-166.1 0a166.1 166.1 0 1 0 332.2 0 166.1 166.1 0 1 0-332.2 0Z" fill="#98CDE1" /><path d="M680.6 597.4L830.1 441c11-11.5 10.6-29.7-0.9-40.6L714.3 290.5c-11.5-11-29.7-10.6-40.6 0.9L524.2 447.8c-11 11.5-10.6 29.7 0.9 40.6L640 598.3c11.5 11 29.7 10.5 40.6-0.9z" fill="#F6B13A" /><path d="M747.8 547.4m-194 0a194 194 0 1 0 388 0 194 194 0 1 0-388 0Z" fill="#DE592B" /><path d="M750.1 547.1m-194 0a194 194 0 1 0 388 0 194 194 0 1 0-388 0Z" fill="#DE592B" /><path d="M750.1 547.1m-166.1 0a166.1 166.1 0 1 0 332.2 0 166.1 166.1 0 1 0-332.2 0Z" fill="#98CDE1" /><path d="M257.1 420.4c1.9 2.1 4.7 3.1 7.5 2.9 3.1-0.2 6.1-0.3 9.2-0.3 68.4 0 124.1 55.7 124.1 124.1 0 6.5-0.5 12.9-1.5 19.2-0.4 2.8 0.4 5.6 2.3 7.7 5.2 5.7 14.7 2.8 15.9-4.8 1.1-7.2 1.7-14.5 1.7-22 0-78.6-63.9-142.5-142.5-142.5-3.6 0-7.2 0.1-10.7 0.4-7.6 0.5-11.2 9.7-6 15.3z" fill="#FFFFFF" /><path d="M398.9 601.7m-10 0a10 10 0 1 0 20 0 10 10 0 1 0-20 0Z" fill="#FFFFFF" /><path d="M733.6 420.4c1.9 2.1 4.7 3.1 7.5 2.9 3.1-0.2 6.1-0.3 9.2-0.3 68.4 0 124.1 55.7 124.1 124.1 0 6.5-0.5 12.9-1.5 19.2-0.4 2.8 0.4 5.6 2.3 7.7 5.2 5.7 14.7 2.8 15.9-4.8 1.1-7.2 1.7-14.5 1.7-22 0-78.6-63.9-142.5-142.5-142.5-3.6 0-7.2 0.1-10.7 0.4-7.7 0.5-11.2 9.7-6 15.3z" fill="#FFFFFF" /><path d="M875.3 601.7m-10 0a10 10 0 1 0 20 0 10 10 0 1 0-20 0Z" fill="#FFFFFF" /></svg>